<svg xmlns="http://www.w3.org/2000/svg" width="48" height="41" viewBox="0 0 48 41"><g fill="none" fill-rule="evenodd"><path fill="#333" d="m-71-251h748v1210h-748z"/><circle cx="24" cy="20" r="26" fill="none"/><g fill="#fff" fill-rule="nonzero"><path d="m36 13.0624687c0-.5527499-.4472812-1.0000312-1.0000312-1.0000312h-30.00000005c-.55275 0-1.00003125.4472812-1.00003125 1.0000312v4.0000313c0 .55275.44728125 1.0000312 1.00003125 1.0000312h30.00000005c.55275 0 1.0000312-.4472812 1.0000312-1.0000312zm-1.9999688 3.0000001h-28.0000312v-1.9999688h28.0000312z"/><path d="m4.99996875 8.0625h22.00003125c.55275 0 1.0000313-.44728125 1.0000313-1.00003125s-.4472813-1.00003125-1.0000313-1.00003125h-22.00003125c-.55275 0-1.00003125.44728125-1.00003125 1.00003125.00009375.55275.447375 1.00003125 1.00003125 1.00003125z"/><circle cx="34" cy="6.063" r="2"/><path d="m28.0000313 25.0624688c0-.55275-.4472813-1.0000313-1.0000313-1.0000313s-1.0000312.4472813-1.0000312 1.0000313c0 1.8027187.6474375 2.7744375 1.1679375 3.5547187.4648125.6973125.8320312 1.2480938.8320312 2.4452813 0 .55275.4472813 1.0000312 1.0000313 1.0000312s1.0000312-.4472813 1.0000312-1.0000312c0-1.8027188-.6474375-2.7744376-1.1679375-3.5547188-.4649062-.6972187-.8320312-1.248-.8320312-2.4452812z"/><path d="m10.9999688 24.0625312c-.5527501 0-1.0000313.4472813-1.0000313 1.0000313 0 1.1972812-.36721875 1.7480625-.83203125 2.4452812-.5205.7802813-1.1679375 1.752-1.1679375 3.5547188 0 .5526562.44728125.9999375 1.00003125.9999375s1.0000312-.4472813 1.0000312-1.0000313c0-1.1972812.3672188-1.7480625.8320313-2.4452812.5205-.7802813 1.1679375-1.752 1.1679375-3.5547188 0-.5526562-.4472812-.9999375-1.0000312-.9999375z"/><path d="m19.0000312 24.0625312c-.55275 0-1.0000312.4472813-1.0000312 1.0000313v6c0 .55275.4472812 1.0000312 1.0000312 1.0000312s1.0000313-.4472812 1.0000313-1.0000312v-6c-.0000938-.55275-.4472813-1.0000313-1.0000313-1.0000313z"/><path d="m42 24.0625312h-1.0000312v-1.0000312c0-.55275-.4472813-1.0000312-1.0000313-1.0000312s-.9999375.4472812-.9999375 1.0000312v1.0000312h-1.0000312c-.5527501 0-1.0000313.4472813-1.0000313 1.0000313s.4472813 1.0000312 1.0000313 1.0000312h1.0000312v1.0000313c0 .55275.4472813 1.0000312 1.0000312 1.0000312.55275 0 1.0000313-.4472812 1.0000313-1.0000312v-1.000125h.9999375c.55275 0 1.0000312-.4472813 1.0000312-1.0000312 0-.5526563-.4472812-.9999376-1.0000312-.9999376z"/><path d="m42 32.0625h-4.0000312c-.5527501 0-1.0000313.4472813-1.0000313 1.0000312 0 .55275.4472813 1.0000313 1.0000313 1.0000313h4.0000312c.55275 0 1.0000312-.4472813 1.0000312-1.0000313 0-.5527499-.4472812-1.0000312-1.0000312-1.0000312z"/><path d="m43.9999688 18.0625312h-4.0000313v-14.00006245c0-2.20603125-1.7939062-4.00003125-4.0000312-4.00003125h-31.99987505c-2.206125.00009375-4.00003125 1.794-4.00003125 4.00003125v13.99996875c0 2.2060312 1.79390625 4.0000312 4.00003125 4.0000312h28.00003125v10.0000313c0 4.411125 3.5888437 7.9999687 7.9999687 7.9999687s7.9999688-3.5888437 7.9999688-7.9999687v-10.0000312c0-2.2060313-1.7939062-3.9999376-4.0000312-3.9999376zm-11.4436876 1.9999688h-28.55624995c-1.1025 0-1.99996875-.8974688-1.99996875-1.9999688v-14.00006245c-.00009375-1.1025.897375-1.99996875 1.99996875-1.99996875h31.99996875c1.1025 0 1.9999688.89746875 1.9999688 1.99996875v13.99996875h-1.9999688c-1.4742187.0000937-2.7499688.8102813-3.4437188 2.0000625zm13.44375 12c0 3.308625-2.691375 6-6 6s-6-2.691375-6-6v-10.0000312c0-1.1025.8974688-1.9999688 1.9999688-1.9999688h7.9999688c1.1024999 0 1.9999687.8974687 1.9999687 1.9999687v10.0000313z"/></g></g></svg>