<svg height="25" viewBox="0 0 48 25" width="48" xmlns="http://www.w3.org/2000/svg"><g fill="none" fill-rule="evenodd"><circle cx="24" cy="12" fill="none" r="26"/><g fill="#333" fill-rule="nonzero"><path d="m42.7368421 0h-32.5316612c-2.90542764.00328947-5.25986837 2.35773032-5.26315785 5.26315789v.86636516h-1.78412831c-1.74342106.0020559-3.15583882 1.41488484-3.15789474 3.15789474v5.53042761c.00205592 1.7430099 1.41447368 3.1558388 3.15789474 3.1578947h1.78412831v.8663652c.00328948 2.9054275 2.35773021 5.2598684 5.26315785 5.2631579h32.5316612c2.9054276-.0032895 5.2598684-2.3577304 5.2631579-5.2631579v-13.57894741c-.0032895-2.90542757-2.3577303-5.25986842-5.2631579-5.26315789zm-39.57894736 15.8704769c-.58100327-.0008223-1.05180927-.4716283-1.05263158-1.0526315v-5.53042761c.00082231-.58100326.47162831-1.05180926 1.05263158-1.05263158h1.78412831v7.63569069zm42.73684206 2.9716284c-.0020559 1.743421-1.4144736 3.1558388-3.1578947 3.1578947h-32.5316612c-1.74342101-.0020559-3.15583879-1.4144737-3.15789469-3.1578947v-13.57894741c.0020559-1.74342105 1.41447368-3.15583884 3.15789469-3.15789473h32.5316612c1.7434211.00205589 3.1558388 1.41447368 3.1578947 3.15789473z"/><path d="m19.6085526 11h-1.8433388v-1.84333884c0-.58141442-.4712171-1.05263158-1.0526316-1.05263158-.5814144 0-1.0526316.47121716-1.0526316 1.05263158v1.84333884h-1.8433388c-.5814144 0-1.0526316.4712171-1.0526316 1.0526316s.4712172 1.0526316 1.0526316 1.0526316h1.8433388v1.8433388c0 .5814144.4712172 1.0526316 1.0526316 1.0526316.5814145 0 1.0526316-.4712172 1.0526316-1.0526316v-1.8433388h1.8433388c.5814146 0 1.0526316-.4712171 1.0526316-1.0526316s-.471217-1.0526316-1.0526316-1.0526316z"/><path d="m38.5612664 8.10402958c-.5814144 0-1.0526316.47121716-1.0526316 1.05263158v5.79194084c0 .5814144.4712172 1.0526316 1.0526316 1.0526316.5814145 0 1.0526316-.4712172 1.0526316-1.0526316v-5.79194084c0-.58141442-.4712171-1.05263158-1.0526316-1.05263158z"/></g></g></svg>