<svg height="36" viewBox="0 0 48 36" width="48" xmlns="http://www.w3.org/2000/svg"><g fill="none" fill-rule="evenodd"><path d="m-171-253h748v1210h-748z"/><circle cx="24" cy="18" fill="none" r="26"/><g fill="#fff" fill-rule="nonzero"><path d="m24 25.9999688c3.308625 0 6-2.691375 6-6s-2.691375-6-6-6-6 2.691375-6 6 2.691375 6 6 6zm0-9.9999376c2.2060312 0 4.0000313 1.7939063 4.0000313 4.0000313s-1.7940001 3.9999375-4.0000313 3.9999375c-2.2060313 0-4.0000312-1.7939062-4.0000312-4.0000313 0-2.206125 1.7939999-3.9999375 4.0000312-3.9999375z"/><path d="m22.9999688 21c.55275 0 1.0000312-.4472813 1.0000312-1.0000313.55275 0 1.0000312-.4472812 1.0000312-1.0000312s-.4472812-1.0000313-1.0000312-1.0000313c-1.1025 0-1.9999688.8974688-1.9999688 1.9999688.0000001.5528437.4472813 1.000125.9999376 1.000125z"/><path d="m46.9999688 0h-45.99993755c-.55275 0-1.00003125.44728125-1.00003125 1.00003125v7.00003125c0 2.2060313 1.79390625 3.9999375 4.00003125 3.9999375v4.0000312c0 11.0282813 8.97168755 19.9999688 19.99996875 19.9999688s19.9999687-8.9716875 19.9999687-19.9999688v-4.0000312c2.2061251 0 4.0000313-1.7939062 4.0000313-4.00003125v-6.9999375c0-.55275-.4472813-1.00003125-1.0000312-1.00003125zm-4.9999688 16.0000313c0 9.9248437-8.0751562 18-18 18s-18-8.0751563-18-18v-4.0000313h12.061875c-2.4504375 1.8244688-4.0619062 4.7174063-4.0619062 7.9999688 0 5.5137187 4.4864062 10.0000312 10.0000312 10.0000312s10.0000313-4.4863125 10.0000313-10.0000312c0-3.2825626-1.6114688-6.1755001-4.0619063-7.9999688h12.061875zm-18-4.0000313c4.411125 0 7.9999688 3.5888437 7.9999688 7.9999687s-3.5888438 7.9999688-7.9999688 7.9999688-7.9999688-3.5888438-7.9999688-7.9999688c.0000001-4.411125 3.5888438-7.9999687 7.9999688-7.9999687zm22.0000312-4.00003125c0 1.1025-.8974687 1.99996875-1.9999687 1.99996875h-40.00003125c-1.1025 0-1.99996875-.89746875-1.99996875-1.99996875v-6h43.9999688z"/><circle cx="37" cy="15" r="1"/></g></g></svg>