<svg height="14" viewBox="0 0 14 14" width="14" xmlns="http://www.w3.org/2000/svg"><g fill="none" fill-rule="evenodd"><path d="m-70-407h748v1210h-748z" fill="#333"/><path d="m7.06126618 5.7858349 4.71885102-4.5505103c.2931771-.28247708.2931771-.7408088 0-1.02328587-.2931772-.28271831-.767964-.28271831-1.0611412 0l-4.71885092 4.5505103-4.71910113-4.5505103c-.29317713-.28271831-.76796398-.28271831-1.0611411 0-.29317713.28247707-.29317713.74080879 0 1.02328587l4.71910112 4.5505103-4.71910112 4.5505103c-.29317713.2824771-.29317713.7408088 0 1.0232859.14658856.1411179.33870463.2117975.53057055.2117975s.38398199-.0706796.53057055-.2120388l4.71910113-4.55051026 4.71885092 4.55051026c.1465886.1413592.3387047.2120388.5305706.2120388s.383982-.0706796.5305706-.2120388c.2931771-.282477.2931771-.7408088 0-1.0232858z" fill="#fff" fill-rule="nonzero" stroke="#fff" transform="translate(1 1.25)"/></g></svg>