<svg height="14" viewBox="0 0 14 14" width="14" xmlns="http://www.w3.org/2000/svg"><path d="m7.06126618 6.00012508 4.71885102-4.71904772c.2931771-.29293919.2931771-.76824616 0-1.06118535-.2931772-.29318935-.767964-.29318935-1.0611412 0l-4.71885092 4.71904772-4.71910113-4.71904772c-.29317713-.29318935-.76796398-.29318935-1.0611411 0-.29317713.29293919-.29317713.76824616 0 1.06118535l4.71910112 4.71904772-4.71910112 4.71904772c-.29317713.2929392-.29317713.7682462 0 1.0611853.14658856.1463446.33870463.2196419.53057055.2196419s.38398199-.0732973.53057055-.219892l4.71910113-4.71904773 4.71885092 4.71904773c.1465886.1465947.3387047.219892.5305706.219892s.383982-.0732973.5305706-.219892c.2931771-.2929392.2931771-.7682462 0-1.0611854z" fill="#666" stroke="#666" transform="translate(1 1)"/></svg>