<svg height="48" viewBox="0 0 39 48" width="39" xmlns="http://www.w3.org/2000/svg"><g fill="none" fill-rule="evenodd"><circle cx="19" cy="24" fill="none" r="26"/><g fill="#333" fill-rule="nonzero"><path d="m29.6 5.6h-1.6c-.4416 0-.8.3576-.8.8s.3584.8.8.8h1.6c.4416 0 .8-.3576.8-.8s-.3584-.8-.8-.8z"/><path d="m6.4 17.6h-2.4v11.2h9.6v-11.2h-2.4zm3.2 1.6v2.4h-1.6v-2.4zm2.4 0v8h-6.4v-8h.8v4h4.8v-4z"/><path d="m16 16c-.4416 0-.8.3576-.8.8v12.8c0 .4424.3584.8.8.8s.8-.3576.8-.8v-12.8c0-.4424-.3584-.8-.8-.8z"/><path d="m22.4 16c-.4416 0-.8.3576-.8.8v12.8c0 .4424.3584.8.8.8s.8-.3576.8-.8v-12.8c0-.4424-.3584-.8-.8-.8z"/><path d="m12 36c0 .4424.3584.8.8.8h12.8c.4416 0 .8-.3576.8-.8s-.3584-.8-.8-.8h-12.8c-.4416 0-.8.3576-.8.8z"/><path d="m36.664 0h-34.928c-.9568 0-1.736.7792-1.736 1.736v30.264 1.6 12.056c0 1.2928 1.0512 2.344 2.344 2.344h33.712c1.292 0 2.344-1.0512 2.344-2.344v-12.056-1.6-30.264c0-.9568-.7792-1.736-1.736-1.736zm-35.064 1.736c0-.0752.0608-.136.136-.136h16.664v30.4h-16.8zm35.2 43.92c0 .4104-.3336.744-.744.744h-33.712c-.4104 0-.744-.3336-.744-.744v-12.056h35.2zm-16.8-13.656v-30.4h16.664c.0752 0 .136.0608.136.136v30.264z"/></g></g></svg>