<svg height="52" viewBox="0 0 53 52" width="53" xmlns="http://www.w3.org/2000/svg"><g fill="none" fill-rule="evenodd"><rect fill="#d8d8d8" fill-opacity=".4" height="52" rx="26" width="53"/><g fill="#8c8b8b"><path d="m11.6517648 24.0134117 10.0103057-9.0092752c.8210201-.738918 2.0855998-.6723612 2.8245178.1486588.3305245.3672495.5134117.843846.5134117 1.3379295v18.0185504c0 1.1045695-.8954305 2-2 2-.4940836 0-.97068-.1828872-1.3379295-.5134117l-10.0103057-9.0092752c-.8210201-.738918-.8875769-2.0034977-.1486589-2.8245178.0469125-.0521249.0965339-.1017464.1486589-.1486588z"/><path d="m24.6517648 24.0134117 10.0103057-9.0092752c.8210201-.738918 2.0855998-.6723612 2.8245178.1486588.3305245.3672495.5134117.843846.5134117 1.3379295v18.0185504c0 1.1045695-.8954305 2-2 2-.4940836 0-.97068-.1828872-1.3379295-.5134117l-10.0103057-9.0092752c-.8210201-.738918-.8875769-2.0034977-.1486589-2.8245178.0469125-.0521249.0965339-.1017464.1486589-.1486588z"/></g></g></svg>