<svg height="29" viewBox="0 0 48 29" width="48" xmlns="http://www.w3.org/2000/svg"><g fill="none" fill-rule="evenodd"><circle cx="24" cy="14" fill="none" r="26"/><g fill="#333" fill-rule="nonzero"><path d="m24 .06253125c-12.3369375 0-24 5.34571875-24 10.99996875 0 10.766625 3.92671875 16.9999687 24 16.9999687 20.0732813 0 24-6.2333437 24-16.9999687 0-5.65425-11.6630625-10.99996875-24-10.99996875zm0 1.99996875c12.7617188 0 22.0000313 5.376 22.0000313 9 0 3.3809062-8.839875 7.0000312-22.0000313 7.0000312-13.1601562 0-22.00003125-3.619125-22.00003125-7.0000312 0-3.624 9.23831255-9 22.00003125-9zm0 24c-15.72159375 0-20.59715625-3.8221875-21.7100625-10.9407188 4.05309375 3.2535001 12.9133125 4.9407188 21.7100625 4.9407188s17.6569688-1.6872187 21.7100625-4.9407188c-1.1129063 7.1185313-5.9884687 10.9407188-21.7100625 10.9407188z"/><circle cx="18" cy="5.063" r="1"/><circle cx="22" cy="5.063" r="1"/><circle cx="26" cy="5.063" r="1"/><circle cx="30" cy="5.063" r="1"/><path d="m22.0000312 23.0625c0 .55275.4472813 1.0000312 1.0000313 1.0000312h1.9999687c.55275 0 1.0000313-.4472812 1.0000313-1.0000312s-.4472813-1.0000312-1.0000313-1.0000312h-1.9999687c-.55275 0-1.0000313.4472812-1.0000313 1.0000312z"/></g></g></svg>