<svg height="48" viewBox="0 0 48 48" width="48" xmlns="http://www.w3.org/2000/svg"><g fill="none" fill-rule="evenodd"><circle cx="24" cy="22" fill="none" r="26"/><g fill="#333" fill-rule="nonzero"><path d="m25.1020169 17.0241145c0-1.6451025-1.3731398-2.9832982-3.0612006-2.9832982s-3.0612005 1.3381957-3.0612005 2.9832982v12.3012571c-.653662.7244753-1.0204321 1.6547982-1.0204321 2.6152338 0 2.1937496 1.8315545 3.9777619 4.0816326 3.9777619s4.0816327-1.783919 4.0816327-3.9777619c0-.9604356-.3666745-1.8907585-1.0204321-2.6152338zm-3.0612006 16.9054185c-1.1260435 0-2.0407685-.8924723-2.0407685-1.9888344 0-.5613262.2431742-1.0837763.6836044-1.4712321.2152406-.188414.3368277-.4564447.3368277-.7380867v-12.7072653c0-.5486472.4584148-.9944638 1.0204321-.9944638s1.0204321.4457234 1.0204321.9944638v12.7071721c0 .281642.121587.5496727.3368277.7380866.4404302.3874559.6836043.909906.6836043 1.4712322-.0001913 1.0964553-.9150119 1.9889276-2.0409598 1.9889276z"/><path d="m43.9999502 25.9999072h-4.0000498v-4.0000254h3.0312328c.4081894 0 .7773786-.2489996.9277543-.628874.1523445-.3798745.058594-.8134676-.2383136-1.0957484l-21.0312224-19.99984574c-.3867206-.36721821-.9921609-.36721821-1.3788814 0l-21.00009732 19.99993944c-.29690763.2821871-.39065806.7168115-.23831361 1.0957484.1503757.3798745.51956491.6288741.9277543.6288741h3.0000139v19.0000034c0 .5527492.44728332 1.0000298 1.00003588 1.0000298h27.28418895c.8942854 3.4405262 3.9985498 5.9999912 7.715942 5.9999912 4.4121767 0 8.0000058-3.5888385 8.0000058-7.999957v-10.0001104c0-2.206028-1.7949458-4.0000254-4.0000498-4.0000254zm-12.0000556 4.0000254v10.0000166h-26.00008921v-19.0000034c0-.5527492-.44728332-1.0000298-1.00003589-1.0000298h-1.50000695l18.50014825-17.61906793 18.5293983 17.61916173h-1.5293508c-.5527526 0-1.0000359.4472806-1.0000359 1.0000298v4.9999614h-1.999978c-2.205104-.0000938-4.0000498 1.7939036-4.0000498 3.9999316zm14.0001274 10.0000166c0 3.3086202-2.6913875 5.9999912-6.0000278 5.9999912s-6.0000278-2.691371-6.0000278-5.9999912v-10.0000166c0-1.1024984.8965354-1.9999658 1.999978-1.9999658h8.0000058c1.1035364 0 1.999978.8974674 1.999978 1.9999658v10.0000166z"/><path d="m41.7959184 32h-.9795919v-.9795918c0-.5414525-.4381393-.9795919-.9795918-.9795919s-.9795918.4381394-.9795918.9795919v.9795918h-.9795919c-.5414524 0-.9795918.4381394-.9795918.9795918 0 .5414525.4381394.9795919.9795918.9795919h.9795919v.9795918c0 .5414525.4381393.9795918.9795918.9795918s.9795918-.4381393.9795918-.9795918v-.9795918h.9795919c.5414524 0 .9795918-.4381394.9795918-.9795919 0-.5414524-.4381394-.9795918-.9795918-.9795918z"/><path d="m41.7959031 39.8367347h-3.9183368c-.5414609 0-.9796071.4381394-.9796071.9795918 0 .5414525.4381462.9795919.9796071.9795919h3.9183368c.5414609 0 .9796071-.4381394.9796071-.9795919 0-.5414524-.4381462-.9795918-.9796071-.9795918z"/></g></g></svg>